<svg width="48" height="60" viewBox="0 0 48 60" fill="none" xmlns="http://www.w3.org/2000/svg">
<path d="M46.8264 25.4978L41.0714 9.7473V1.42852C41.0714 0.639609 40.4317 0 39.6429 0H8.21438C7.42547 0 6.78586 0.639727 6.78586 1.42852V9.74719L1.03067 25.4978C0.347802 27.3636 -0.00108287 29.335 2.52475e-06 31.3219V55.0765C2.52475e-06 57.7913 2.20863 60 4.92352 60H42.9335C45.6484 60 47.857 57.7913 47.857 55.0765V31.3219C47.857 29.329 47.5103 27.3694 46.8264 25.4978ZM9.64278 2.85715H38.2143V8.57145H9.64278V2.85715ZM45 50.1321H24.8363C24.0473 50.1321 23.4077 50.7718 23.4077 51.5606C23.4077 52.3495 24.0475 52.9891 24.8363 52.9891H45V55.0763C45 56.2157 44.073 57.1427 42.9335 57.1427H4.92352C3.7841 57.1427 2.85715 56.2158 2.85715 55.0763V31.3219C2.85627 29.6695 3.1464 28.03 3.71426 26.4783L9.21328 11.4286H38.6438L44.1428 26.4783C44.7106 28.03 45.0008 29.6695 44.9999 31.3219L45 50.1321Z" fill="#F1CDB3"/>
<path d="M29.5455 33.805C29.079 30.8772 26.5363 28.632 23.479 28.632C20.4217 28.632 17.879 30.8772 17.4126 33.805C14.9956 34.7989 13.4142 37.2756 13.6184 39.9659C13.8461 42.9637 16.2791 45.392 19.2775 45.6148C20.4356 45.7011 21.5857 45.4628 22.6036 44.9259C23.16 44.6328 23.7982 44.6326 24.3542 44.926C25.237 45.3908 26.2199 45.6331 27.2176 45.632C27.3714 45.632 27.526 45.6263 27.6802 45.6149C30.6788 45.3923 33.1117 42.9638 33.3395 39.966C33.5438 37.2756 31.9624 34.7989 29.5455 33.805ZM30.4906 39.7495C30.369 41.35 29.07 42.6466 27.4688 42.7655C26.8462 42.8126 26.2299 42.6851 25.6872 42.3986C25.0066 42.0394 24.2487 41.8517 23.4791 41.8517C22.7096 41.8517 21.9516 42.0394 21.2711 42.3986C20.7284 42.6849 20.1134 42.8123 19.4894 42.7655C17.8882 42.6467 16.5891 41.3501 16.4677 39.7495C16.3429 38.1062 17.4581 36.6124 19.0616 36.2746C19.3873 36.206 19.6788 36.0259 19.8858 35.7653C20.0929 35.5047 20.2024 35.18 20.1956 34.8473L20.1933 34.775C20.1933 32.9632 21.6672 31.4893 23.479 31.4893C25.2908 31.4893 26.7647 32.9632 26.7647 34.7698L26.7625 34.8473C26.7556 35.1801 26.8651 35.5048 27.0722 35.7654C27.2792 36.026 27.5708 36.2061 27.8965 36.2746C29.5002 36.6124 30.6154 38.1062 30.4906 39.7495Z" fill="#F1CDB3"/>
<path d="M23.4791 25.7751C26.0393 25.7751 28.122 23.6924 28.122 21.1322C28.122 18.572 26.0393 16.4893 23.4791 16.4893C20.9189 16.4893 18.8363 18.5721 18.8363 21.1322C18.8363 23.6923 20.9191 25.7751 23.4791 25.7751ZM23.4791 19.3465C24.4638 19.3465 25.2648 20.1475 25.2648 21.1322C25.2648 22.1169 24.4638 22.9179 23.4791 22.9179C22.4944 22.9179 21.6934 22.1169 21.6934 21.1322C21.6934 20.1475 22.4945 19.3465 23.4791 19.3465Z" fill="#F1CDB3"/>
<path d="M18.122 26.6561C18.122 24.0959 16.0392 22.0132 13.4791 22.0132C10.9191 22.0132 8.83629 24.096 8.83629 26.6561C8.83629 29.2162 10.919 31.2989 13.4791 31.2989C16.0393 31.2989 18.122 29.2162 18.122 26.6561ZM13.4791 28.4418C12.4944 28.4418 11.6934 27.6408 11.6934 26.6561C11.6934 25.6714 12.4944 24.8704 13.4791 24.8704C14.4639 24.8704 15.2649 25.6714 15.2649 26.6561C15.2649 27.6408 14.4638 28.4418 13.4791 28.4418Z" fill="#F1CDB3"/>
<path d="M33.4791 22.0131C30.9189 22.0131 28.8362 24.0959 28.8362 26.656C28.8362 29.216 30.9191 31.2988 33.4791 31.2988C36.0393 31.2988 38.1219 29.2162 38.1219 26.656C38.1219 24.0958 36.0393 22.0131 33.4791 22.0131ZM33.4791 28.4418C32.4944 28.4418 31.6934 27.6408 31.6934 26.6561C31.6934 25.6714 32.4945 24.8704 33.4791 24.8704C34.4638 24.8704 35.2648 25.6714 35.2648 26.6561C35.2648 27.6408 34.4638 28.4418 33.4791 28.4418Z" fill="#F1CDB3"/>
<path d="M18.6219 50.1322H18.275C17.4861 50.1322 16.8465 50.7719 16.8465 51.5607C16.8465 52.3496 17.4863 52.9892 18.275 52.9892H18.6219C19.4108 52.9892 20.0504 52.3495 20.0504 51.5607C20.0506 50.7719 19.4109 50.1322 18.6219 50.1322Z" fill="#F1CDB3"/>
</svg>
