<svg width="57" height="60" viewBox="0 0 57 60" fill="none" xmlns="http://www.w3.org/2000/svg">
<path d="M55.8085 19.9663L28.8362 0.226256C28.6354 0.0792462 28.393 0 28.1441 0C27.8952 0 27.6527 0.0792462 27.4519 0.226256L0.479782 19.9663C-0.0424056 20.3485 -0.15596 21.0818 0.226305 21.6041L3.75166 26.4211C3.84251 26.5453 3.95696 26.6504 4.08846 26.7304C4.21996 26.8104 4.36593 26.8637 4.51804 26.8872C4.67014 26.9107 4.82539 26.9041 4.97491 26.8676C5.12444 26.8311 5.26531 26.7655 5.38947 26.6745L6.4533 25.8959V58.828C6.4533 59.4751 6.97806 59.9998 7.62517 59.9998H48.7249C49.372 59.9998 49.8968 59.4751 49.8968 58.828V25.9413L50.8988 26.6745C51.0229 26.7655 51.1638 26.831 51.3133 26.8675C51.4628 26.904 51.618 26.9106 51.7701 26.8871C51.9222 26.8636 52.0682 26.8103 52.1997 26.7303C52.3312 26.6504 52.4456 26.5453 52.5365 26.4211L56.0618 21.6041C56.4442 21.0816 56.3306 20.3485 55.8085 19.9663ZM47.5531 53.0856H19.8274C19.1803 53.0856 18.6556 53.6103 18.6556 54.2574C18.6556 54.9045 19.1803 55.4293 19.8274 55.4293H47.5531V57.6562H8.79693V25.105H36.2401C36.8872 25.105 37.412 24.5803 37.412 23.9332C37.412 23.2861 36.8872 22.7613 36.2401 22.7613H10.7371L28.1441 10.0213L47.5531 24.226V53.0856ZM51.3373 24.0911L28.8362 7.62348C28.6355 7.47638 28.393 7.39712 28.1441 7.39719C27.8952 7.39709 27.6528 7.47636 27.452 7.62348L4.95084 24.0911L2.8097 21.1654L28.1442 2.62391L53.4788 21.1654L51.3373 24.0911Z" fill="#F1CDB3"/>
<path d="M41.6113 23.7046C41.5961 23.6295 41.5727 23.5557 41.5434 23.4842C41.5141 23.4139 41.4777 23.3459 41.4355 23.2826C41.3933 23.2184 41.3446 23.1587 41.2902 23.1045C41.07 22.8855 40.7723 22.7621 40.4617 22.761C40.1535 22.761 39.8512 22.8864 39.6333 23.1045C39.5794 23.1584 39.5302 23.2182 39.488 23.2826C39.4458 23.3459 39.4095 23.4139 39.3802 23.4842C39.3509 23.5557 39.3275 23.6295 39.3134 23.7046C39.2982 23.7796 39.29 23.8569 39.29 23.933C39.29 24.0092 39.2982 24.0866 39.3134 24.1615C39.3275 24.2364 39.3509 24.3103 39.3802 24.3818C39.4095 24.4523 39.4458 24.5202 39.488 24.5835C39.5302 24.648 39.5794 24.7076 39.6333 24.7616C39.6872 24.8155 39.747 24.8648 39.8114 24.9069C39.8747 24.949 39.9427 24.9855 40.0142 25.0148C40.0845 25.0441 40.1582 25.0675 40.2333 25.0816C40.3083 25.0968 40.3857 25.1049 40.4617 25.1049C40.5379 25.1049 40.6153 25.0968 40.6902 25.0816C40.7654 25.067 40.8389 25.0446 40.9094 25.0148C40.9809 24.9855 41.0488 24.949 41.1121 24.9069C41.1766 24.8648 41.2362 24.8155 41.2902 24.7616C41.3441 24.7077 41.3934 24.648 41.4355 24.5835C41.4777 24.5202 41.5141 24.4523 41.5434 24.3818C41.5727 24.3105 41.5961 24.2365 41.6113 24.1615C41.6266 24.0865 41.6335 24.0092 41.6335 23.933C41.6335 23.8569 41.6264 23.7795 41.6113 23.7046Z" fill="#F1CDB3"/>
<path d="M16.7544 54.0281C16.7394 53.9531 16.7171 53.8797 16.6877 53.809C16.6584 53.7386 16.622 53.6695 16.5798 53.6063C16.5374 53.5423 16.4887 53.4826 16.4346 53.4281C16.3807 53.3742 16.3208 53.3262 16.2565 53.2828C16.1285 53.1978 15.9852 53.1385 15.8346 53.1082C15.6834 53.0777 15.5276 53.0777 15.3764 53.1082C15.3026 53.1234 15.2287 53.1457 15.1573 53.175C15.0869 53.2043 15.019 53.2406 14.9557 53.2828C14.8912 53.325 14.8314 53.3742 14.7776 53.4281C14.7225 53.482 14.6744 53.543 14.6311 53.6063C14.5461 53.7342 14.4868 53.8775 14.4566 54.0281C14.4412 54.1043 14.4343 54.1805 14.4343 54.2566C14.4338 54.4106 14.4641 54.5632 14.5233 54.7054C14.5526 54.7758 14.589 54.8438 14.6311 54.9081C14.6744 54.9714 14.7225 55.0312 14.7776 55.0862C14.8315 55.1403 14.8914 55.1895 14.9557 55.2315C15.019 55.2737 15.0869 55.3101 15.1573 55.3394C15.2287 55.3686 15.3026 55.3909 15.3764 55.4061C15.4526 55.4214 15.5299 55.4296 15.6061 55.4296C15.8376 55.4286 16.0637 55.3598 16.2565 55.2315C16.3207 55.1894 16.3804 55.1407 16.4346 55.0862C16.4885 55.0312 16.5377 54.9715 16.5798 54.9081C16.7083 54.7151 16.7772 54.4885 16.7778 54.2566C16.7778 54.1805 16.7696 54.1042 16.7544 54.0281Z" fill="#F1CDB3"/>
<path d="M42.7006 30.5741C42.7006 29.5803 42.3108 28.6476 41.603 27.9481C40.902 27.2554 39.9434 26.8676 38.9659 26.876C38.6578 26.8793 38.3512 26.9208 38.0533 26.9997C35.8832 27.5554 33.763 28.2902 31.7145 29.1966C30.5446 28.9199 29.3464 28.7806 28.1443 28.7813C27.4673 28.7813 26.7843 28.8257 26.1139 28.9133C25.5962 28.9816 25.0822 29.0761 24.5741 29.1966C22.5259 28.2903 20.4061 27.5556 18.2364 26.9999C18.226 26.997 18.2155 26.9942 18.205 26.9915C17.0516 26.6978 15.8622 26.9619 14.9418 27.7171C14.0216 28.472 13.5303 29.5867 13.5934 30.7745C13.658 31.9938 13.7779 33.2096 13.9528 34.418C14.11 35.5012 14.3108 36.5776 14.5546 37.6446C14.1918 38.5729 13.939 39.5405 13.8014 40.5276C13.7442 40.9397 13.7153 41.3553 13.715 41.7714C13.715 47.0173 18.2895 51.2853 23.9126 51.2853H32.3763C35.4584 51.2853 38.3419 50.0035 40.2876 47.7686C42.0706 45.7205 42.8518 43.1486 42.4872 40.5269C42.4088 39.9648 42.2931 39.4085 42.141 38.8617C42.0257 38.4498 41.8901 38.0438 41.7346 37.6453C42.2504 35.3878 42.5718 33.0901 42.6952 30.7777C42.6988 30.7091 42.7006 30.6416 42.7006 30.5741ZM40.3546 30.647L40.3544 30.651C40.232 32.949 39.9019 35.2312 39.3682 37.4697C39.3102 37.7133 39.3316 37.9692 39.4295 38.1997C39.6081 38.6199 39.7595 39.0511 39.8827 39.4907C40.0068 39.937 40.1012 40.391 40.1652 40.8497C40.435 42.7897 39.8505 44.7004 38.5192 46.2296C37.0189 47.9529 34.7798 48.9414 32.3757 48.9414H23.912C19.5815 48.9414 16.0581 45.7249 16.0581 41.7714C16.0581 41.4679 16.0798 41.1574 16.1223 40.8496C16.2497 39.938 16.4971 39.0473 16.8582 38.2007C16.9564 37.9699 16.9781 37.7138 16.9199 37.4698C16.6532 36.3508 16.4369 35.2203 16.2718 34.0819C16.107 32.9439 15.9941 31.799 15.9333 30.6508C15.9101 30.2148 16.0903 29.806 16.428 29.5289C16.6752 29.326 16.9757 29.2196 17.285 29.2196C17.3903 29.2196 17.4968 29.2319 17.6027 29.2571L17.626 29.2633C19.8053 29.8194 21.931 30.5674 23.9784 31.4985C24.2256 31.6112 24.5043 31.6346 24.7669 31.5646C25.3096 31.4199 25.861 31.3106 26.4178 31.2372C26.987 31.1628 27.5678 31.125 28.1436 31.125C29.2913 31.125 30.4272 31.2729 31.5201 31.5646C31.7823 31.6342 32.0608 31.6114 32.3078 31.499C34.3625 30.5646 36.496 29.8145 38.6833 29.2573C38.7834 29.2333 38.8859 29.2207 38.9888 29.2196H39.004C39.3543 29.2196 39.7002 29.3632 39.955 29.6149C40.0825 29.74 40.1836 29.8892 40.2526 30.0539C40.3215 30.2186 40.3568 30.3955 40.3564 30.574C40.3565 30.5983 40.3559 30.6224 40.3546 30.647Z" fill="#F1CDB3"/>
<path d="M30.342 43.5662C29.7763 43.5662 29.316 43.1059 29.316 42.5403C29.316 41.8932 28.7914 41.3684 28.1441 41.3684C27.4969 41.3684 26.9723 41.8932 26.9723 42.5403V42.5831C26.9723 43.1487 26.5121 43.609 25.9464 43.609C25.2992 43.609 24.7745 44.1338 24.7745 44.7809C24.7745 45.428 25.2992 45.9528 25.9464 45.9528C26.7972 45.9528 27.5751 45.6356 28.1687 45.1135C28.7757 45.6284 29.546 45.9107 30.342 45.9099C30.9891 45.9099 31.5139 45.3851 31.5139 44.738C31.5139 44.0908 30.9891 43.5662 30.342 43.5662Z" fill="#F1CDB3"/>
<path d="M24.0478 38.1664L22.3071 37.3688C22.1539 37.2985 21.9874 37.2621 21.819 37.2621C21.6505 37.2621 21.484 37.2985 21.3309 37.3688L19.5901 38.1664C19.0017 38.4359 18.7431 39.1314 19.0128 39.7198C19.0769 39.8597 19.1679 39.9856 19.2806 40.0904C19.3934 40.1951 19.5257 40.2766 19.6699 40.3302C19.8142 40.3838 19.9676 40.4085 20.1214 40.4028C20.2752 40.3971 20.4263 40.3612 20.5662 40.2971L21.8189 39.7232L23.0715 40.2971C23.6595 40.5669 24.3554 40.3082 24.6249 39.7198C24.8947 39.1314 24.636 38.4358 24.0478 38.1664Z" fill="#F1CDB3"/>
<path d="M36.6982 38.1662L34.9575 37.3686C34.8043 37.2983 34.6378 37.262 34.4694 37.262C34.3009 37.262 34.1344 37.2983 33.9813 37.3686L32.2406 38.1662C31.6522 38.4357 31.3937 39.1312 31.6633 39.7196C31.933 40.3083 32.6285 40.5669 33.2168 40.2969L34.4694 39.723L35.722 40.2969C35.8749 40.3672 36.0411 40.4036 36.2094 40.4036C36.6535 40.4036 37.0783 40.1498 37.2754 39.7196C37.5451 39.1312 37.2867 38.4357 36.6982 38.1662Z" fill="#F1CDB3"/>
</svg>
